<mxfile host="65bd71144e">
    <diagram id="c55iqcwvUlj2xSzX-zpX" name="app inst">
        <mxGraphModel dx="693" dy="426" grid="1" gridSize="10" guides="1" tooltips="1" connect="1" arrows="1" fold="1" page="1" pageScale="1" pageWidth="1100" pageHeight="850" math="0" shadow="0">
            <root>
                <mxCell id="0"/>
                <mxCell id="1" parent="0"/>
                <mxCell id="2" value="逻辑" style="rounded=1;whiteSpace=wrap;html=1;fillColor=#fff2cc;strokeColor=#d6b656;" parent="1" vertex="1">
                    <mxGeometry x="230" y="30" width="80" height="30" as="geometry"/>
                </mxCell>
                <mxCell id="3" value="第三方" style="rounded=1;whiteSpace=wrap;html=1;fillColor=#f8cecc;strokeColor=#b85450;" parent="1" vertex="1">
                    <mxGeometry x="350" y="30" width="80" height="30" as="geometry"/>
                </mxCell>
                <mxCell id="4" value="变量" style="rounded=1;whiteSpace=wrap;html=1;fillColor=#6a00ff;strokeColor=#3700CC;fontColor=#ffffff;" parent="1" vertex="1">
                    <mxGeometry x="480" y="30" width="80" height="30" as="geometry"/>
                </mxCell>
                <mxCell id="60" value="第三方&lt;br&gt;Optional" style="rounded=1;whiteSpace=wrap;html=1;fillColor=#f8cecc;strokeColor=#b85450;dashed=1;" parent="1" vertex="1">
                    <mxGeometry x="630" y="30" width="80" height="30" as="geometry"/>
                </mxCell>
                <mxCell id="61" value="Used in" style="endArrow=none;dashed=1;html=1;spacingBottom=22;fillColor=#f8cecc;strokeColor=#b85450;" parent="1" edge="1">
                    <mxGeometry width="50" height="50" relative="1" as="geometry">
                        <mxPoint x="920" y="50" as="sourcePoint"/>
                        <mxPoint x="840" y="50" as="targetPoint"/>
                    </mxGeometry>
                </mxCell>
                <mxCell id="62" value="第三方参数" style="rounded=1;whiteSpace=wrap;html=1;fillColor=#fa6800;strokeColor=#C73500;fontColor=#000000;" parent="1" vertex="1">
                    <mxGeometry x="110" y="30" width="80" height="30" as="geometry"/>
                </mxCell>
                <mxCell id="145" value="" style="group" parent="1" vertex="1" connectable="0">
                    <mxGeometry x="110" y="120" width="960" height="555" as="geometry"/>
                </mxCell>
                <mxCell id="5" value="Docker App Instance" style="swimlane;childLayout=stackLayout;resizeParent=1;resizeParentMax=0;horizontal=1;startSize=20;horizontalStack=0;html=1;" parent="145" vertex="1">
                    <mxGeometry width="960" height="390" as="geometry">
                        <mxRectangle width="80" height="30" as="alternateBounds"/>
                    </mxGeometry>
                </mxCell>
                <mxCell id="6" value="Host" style="swimlane;startSize=20;horizontal=0;html=1;" parent="5" vertex="1">
                    <mxGeometry y="20" width="960" height="370" as="geometry"/>
                </mxCell>
                <mxCell id="33" value="wait for container stop" style="rounded=1;whiteSpace=wrap;html=1;fillColor=#fff2cc;strokeColor=#d6b656;" parent="6" vertex="1">
                    <mxGeometry x="410" y="208.125" width="80" height="29.732142857142858" as="geometry"/>
                </mxCell>
                <mxCell id="65" value="before-hook" style="rounded=1;whiteSpace=wrap;html=1;fillColor=#fff2cc;strokeColor=#d6b656;" parent="6" vertex="1">
                    <mxGeometry x="410" y="277.5" width="80" height="29.732142857142858" as="geometry"/>
                </mxCell>
                <mxCell id="59" style="edgeStyle=none;html=1;entryX=0.5;entryY=0;entryDx=0;entryDy=0;endArrow=classicThin;endFill=1;" parent="6" source="33" target="65" edge="1">
                    <mxGeometry relative="1" as="geometry"/>
                </mxCell>
                <mxCell id="73" style="edgeStyle=none;html=1;entryX=0.5;entryY=0;entryDx=0;entryDy=0;endArrow=classicThin;dashed=1;startArrow=none;startFill=0;endFill=1;" parent="6" source="69" target="91" edge="1">
                    <mxGeometry relative="1" as="geometry">
                        <Array as="points">
                            <mxPoint x="450" y="124"/>
                        </Array>
                    </mxGeometry>
                </mxCell>
                <mxCell id="69" value="pseudonym" style="rounded=1;whiteSpace=wrap;html=1;fillColor=#fff2cc;strokeColor=#d6b656;" parent="6" vertex="1">
                    <mxGeometry x="180" y="109.01785714285715" width="80" height="29.732142857142858" as="geometry"/>
                </mxCell>
                <mxCell id="71" style="edgeStyle=none;html=1;entryX=0;entryY=0.5;entryDx=0;entryDy=0;endArrow=classicThin;dashed=1;startArrow=none;startFill=0;endFill=1;" parent="6" source="70" target="69" edge="1">
                    <mxGeometry relative="1" as="geometry"/>
                </mxCell>
                <mxCell id="82" value="Host" style="swimlane;startSize=20;horizontal=0;html=1;fontStyle=1" parent="6" vertex="1">
                    <mxGeometry width="960" height="370" as="geometry"/>
                </mxCell>
                <mxCell id="158" style="edgeStyle=none;html=1;entryX=0.5;entryY=0;entryDx=0;entryDy=0;dashed=1;startArrow=none;startFill=0;endArrow=classicThin;endFill=1;" parent="82" source="88" target="95" edge="1">
                    <mxGeometry relative="1" as="geometry">
                        <Array as="points">
                            <mxPoint x="220" y="30"/>
                        </Array>
                    </mxGeometry>
                </mxCell>
                <mxCell id="159" style="edgeStyle=none;html=1;entryX=0.5;entryY=0;entryDx=0;entryDy=0;dashed=1;startArrow=none;startFill=0;endArrow=classicThin;endFill=1;" parent="82" source="88" target="101" edge="1">
                    <mxGeometry relative="1" as="geometry">
                        <Array as="points">
                            <mxPoint x="330" y="30"/>
                        </Array>
                    </mxGeometry>
                </mxCell>
                <mxCell id="232" style="edgeStyle=none;html=1;entryX=0.633;entryY=0.058;entryDx=0;entryDy=0;entryPerimeter=0;dashed=1;" edge="1" parent="82" source="88" target="231">
                    <mxGeometry relative="1" as="geometry">
                        <Array as="points">
                            <mxPoint x="791" y="25"/>
                        </Array>
                    </mxGeometry>
                </mxCell>
                <mxCell id="88" value="k8s-docker-common-cases" style="rounded=1;whiteSpace=wrap;html=1;fillColor=#6a00ff;strokeColor=#3700CC;fontColor=#ffffff;" parent="82" vertex="1">
                    <mxGeometry x="400" y="9.910714285714286" width="90" height="29.732142857142858" as="geometry"/>
                </mxCell>
                <mxCell id="90" style="edgeStyle=none;html=1;entryX=0.5;entryY=0;entryDx=0;entryDy=0;" parent="82" source="91" target="99" edge="1">
                    <mxGeometry relative="1" as="geometry"/>
                </mxCell>
                <mxCell id="91" value="download resouces" style="rounded=1;whiteSpace=wrap;html=1;fillColor=#fff2cc;strokeColor=#d6b656;dashed=1;" parent="82" vertex="1">
                    <mxGeometry x="395" y="147.25" width="110" height="30.72321428571429" as="geometry"/>
                </mxCell>
                <mxCell id="92" style="edgeStyle=none;html=1;entryX=0.5;entryY=0;entryDx=0;entryDy=0;exitX=0.5;exitY=1;exitDx=0;exitDy=0;endArrow=none;strokeColor=#b85450;dashed=1;spacingBottom=22;fillColor=#f8cecc;" parent="82" target="91" edge="1">
                    <mxGeometry relative="1" as="geometry">
                        <mxPoint x="450" y="39.642857142857146" as="sourcePoint"/>
                    </mxGeometry>
                </mxCell>
                <mxCell id="93" style="edgeStyle=none;html=1;entryX=0.5;entryY=0;entryDx=0;entryDy=0;endArrow=classicThin;endFill=1;dashed=1;startArrow=none;startFill=0;" parent="82" source="95" target="98" edge="1">
                    <mxGeometry relative="1" as="geometry">
                        <mxPoint x="180" y="222.99107142857133" as="targetPoint"/>
                    </mxGeometry>
                </mxCell>
                <mxCell id="95" value="volumes" style="rounded=1;whiteSpace=wrap;html=1;fillColor=#6a00ff;strokeColor=#3700CC;fontColor=#ffffff;" parent="82" vertex="1">
                    <mxGeometry x="180" y="59.465" width="80" height="29.732142857142858" as="geometry"/>
                </mxCell>
                <mxCell id="98" value="-v&lt;br&gt;param" style="rounded=1;whiteSpace=wrap;html=1;fillColor=#fa6800;strokeColor=#C73500;fontColor=#000000;" parent="82" vertex="1">
                    <mxGeometry x="180" y="208.125" width="80" height="29.732142857142858" as="geometry"/>
                </mxCell>
                <mxCell id="99" value="wait for container stop" style="rounded=1;whiteSpace=wrap;html=1;fillColor=#fff2cc;strokeColor=#d6b656;" parent="82" vertex="1">
                    <mxGeometry x="410" y="208.125" width="80" height="29.732142857142858" as="geometry"/>
                </mxCell>
                <mxCell id="100" style="edgeStyle=none;html=1;entryX=0.5;entryY=0;entryDx=0;entryDy=0;fontColor=default;endArrow=classicThin;endFill=1;dashed=1;startArrow=none;startFill=0;" parent="82" source="101" target="102" edge="1">
                    <mxGeometry relative="1" as="geometry"/>
                </mxCell>
                <mxCell id="101" value="env" style="rounded=1;whiteSpace=wrap;html=1;fillColor=#6a00ff;strokeColor=#3700CC;dashed=1;fontColor=#ffffff;" parent="82" vertex="1">
                    <mxGeometry x="290" y="59.46857142857144" width="80" height="29.732142857142858" as="geometry"/>
                </mxCell>
                <mxCell id="102" value="-e&lt;br&gt;param" style="rounded=1;whiteSpace=wrap;html=1;fillColor=#fa6800;strokeColor=#C73500;fontColor=#000000;" parent="82" vertex="1">
                    <mxGeometry x="290" y="208.12857142857143" width="80" height="29.732142857142858" as="geometry"/>
                </mxCell>
                <mxCell id="103" style="edgeStyle=none;html=1;endArrow=classicThin;dashed=1;startArrow=none;startFill=0;endFill=1;" parent="82" source="104" target="111" edge="1">
                    <mxGeometry relative="1" as="geometry"/>
                </mxCell>
                <mxCell id="104" value="curl" style="rounded=1;whiteSpace=wrap;html=1;fillColor=#f8cecc;strokeColor=#b85450;" parent="82" vertex="1">
                    <mxGeometry x="180" y="148.66071428571428" width="80" height="29.732142857142858" as="geometry"/>
                </mxCell>
                <mxCell id="108" value="before-hook" style="rounded=1;whiteSpace=wrap;html=1;fillColor=#fff2cc;strokeColor=#d6b656;" parent="82" vertex="1">
                    <mxGeometry x="410" y="277.5" width="80" height="29.732142857142858" as="geometry"/>
                </mxCell>
                <mxCell id="109" style="edgeStyle=none;html=1;entryX=0.5;entryY=0;entryDx=0;entryDy=0;endArrow=classicThin;endFill=1;" parent="82" source="99" target="108" edge="1">
                    <mxGeometry relative="1" as="geometry"/>
                </mxCell>
                <mxCell id="110" style="edgeStyle=none;html=1;entryX=0;entryY=0.5;entryDx=0;entryDy=0;endArrow=classicThin;dashed=1;startArrow=none;startFill=0;endFill=1;" parent="82" source="111" target="91" edge="1">
                    <mxGeometry relative="1" as="geometry"/>
                </mxCell>
                <mxCell id="111" value="transform" style="rounded=1;whiteSpace=wrap;html=1;fillColor=#fff2cc;strokeColor=#d6b656;" parent="82" vertex="1">
                    <mxGeometry x="290" y="148.66071428571428" width="80" height="29.732142857142858" as="geometry"/>
                </mxCell>
                <mxCell id="113" value="pseudonym" style="rounded=1;whiteSpace=wrap;html=1;fillColor=#fff2cc;strokeColor=#d6b656;" parent="82" vertex="1">
                    <mxGeometry x="180" y="109.01785714285715" width="80" height="29.732142857142858" as="geometry"/>
                </mxCell>
                <mxCell id="123" style="edgeStyle=none;html=1;dashed=1;startArrow=classicThin;startFill=1;endArrow=none;endFill=0;" parent="82" source="121" target="88" edge="1">
                    <mxGeometry relative="1" as="geometry">
                        <Array as="points">
                            <mxPoint x="100" y="25"/>
                        </Array>
                    </mxGeometry>
                </mxCell>
                <mxCell id="121" value="pv" style="rounded=1;whiteSpace=wrap;html=1;fillColor=#6a00ff;strokeColor=#3700CC;fontColor=#ffffff;" parent="82" vertex="1">
                    <mxGeometry x="60" y="59.466428571428565" width="80" height="29.732142857142858" as="geometry"/>
                </mxCell>
                <mxCell id="122" style="edgeStyle=none;html=1;dashed=1;" parent="82" source="70" target="121" edge="1">
                    <mxGeometry relative="1" as="geometry"/>
                </mxCell>
                <mxCell id="156" style="edgeStyle=none;html=1;entryX=0;entryY=0.5;entryDx=0;entryDy=0;dashed=1;startArrow=none;startFill=0;endArrow=classicThin;endFill=1;" parent="82" source="70" target="104" edge="1">
                    <mxGeometry relative="1" as="geometry"/>
                </mxCell>
                <mxCell id="70" value="filter&lt;br&gt;transform" style="rounded=1;whiteSpace=wrap;html=1;fillColor=#fff2cc;strokeColor=#d6b656;" parent="82" vertex="1">
                    <mxGeometry x="60" y="148.66071428571428" width="80" height="29.732142857142858" as="geometry"/>
                </mxCell>
                <mxCell id="161" style="edgeStyle=none;html=1;dashed=1;startArrow=classicThin;startFill=1;endArrow=none;endFill=0;entryX=0.5;entryY=0;entryDx=0;entryDy=0;" parent="82" source="77" target="91" edge="1">
                    <mxGeometry relative="1" as="geometry">
                        <Array as="points">
                            <mxPoint x="450" y="124"/>
                        </Array>
                    </mxGeometry>
                </mxCell>
                <mxCell id="77" value="init.sh" style="rounded=1;whiteSpace=wrap;html=1;fillColor=#fff2cc;strokeColor=#d6b656;" parent="82" vertex="1">
                    <mxGeometry x="650" y="109.015" width="80" height="29.732142857142858" as="geometry"/>
                </mxCell>
                <mxCell id="127" value="-p&lt;br&gt;param" style="rounded=1;whiteSpace=wrap;html=1;fillColor=#fa6800;strokeColor=#C73500;fontColor=#000000;" parent="82" vertex="1">
                    <mxGeometry x="520" y="208.12" width="80" height="29.732142857142858" as="geometry"/>
                </mxCell>
                <mxCell id="129" style="edgeStyle=none;html=1;entryX=0.5;entryY=0;entryDx=0;entryDy=0;dashed=1;endArrow=classicThin;endFill=1;startArrow=none;startFill=0;" parent="82" source="128" target="127" edge="1">
                    <mxGeometry relative="1" as="geometry"/>
                </mxCell>
                <mxCell id="132" style="edgeStyle=none;html=1;dashed=1;startArrow=classicThin;startFill=1;endArrow=none;endFill=0;" parent="82" source="128" edge="1">
                    <mxGeometry relative="1" as="geometry">
                        <mxPoint x="450" y="40" as="targetPoint"/>
                        <Array as="points">
                            <mxPoint x="450" y="74"/>
                        </Array>
                    </mxGeometry>
                </mxCell>
                <mxCell id="128" value="port" style="rounded=1;whiteSpace=wrap;html=1;fillColor=#6a00ff;strokeColor=#3700CC;dashed=1;fontColor=#ffffff;" parent="82" vertex="1">
                    <mxGeometry x="520" y="59.46000000000001" width="80" height="29.732142857142858" as="geometry"/>
                </mxCell>
                <mxCell id="63" value="after-hook" style="rounded=1;whiteSpace=wrap;html=1;fillColor=#fff2cc;strokeColor=#d6b656;" parent="82" vertex="1">
                    <mxGeometry x="850" y="209.39285714285714" width="80" height="29.732142857142858" as="geometry"/>
                </mxCell>
                <mxCell id="137" style="edgeStyle=none;html=1;entryX=1;entryY=0.5;entryDx=0;entryDy=0;dashed=1;startArrow=classicThin;startFill=1;endArrow=none;endFill=0;" parent="82" source="135" target="91" edge="1">
                    <mxGeometry relative="1" as="geometry"/>
                </mxCell>
                <mxCell id="138" style="edgeStyle=none;html=1;entryX=0.5;entryY=0;entryDx=0;entryDy=0;dashed=1;startArrow=none;startFill=0;endArrow=none;endFill=0;strokeColor=#b85450;spacingBottom=22;fillColor=#f8cecc;" parent="82" source="135" target="63" edge="1">
                    <mxGeometry relative="1" as="geometry"/>
                </mxCell>
                <mxCell id="135" value="after-hook.sh" style="rounded=1;whiteSpace=wrap;html=1;fillColor=#fff2cc;strokeColor=#d6b656;" parent="82" vertex="1">
                    <mxGeometry x="850" y="148.24553571428572" width="80" height="29.732142857142858" as="geometry"/>
                </mxCell>
                <mxCell id="143" style="edgeStyle=none;html=1;entryX=0.5;entryY=0;entryDx=0;entryDy=0;dashed=1;startArrow=none;startFill=0;endArrow=classicThin;endFill=1;" parent="82" source="139" target="141" edge="1">
                    <mxGeometry relative="1" as="geometry">
                        <Array as="points">
                            <mxPoint x="880" y="140"/>
                            <mxPoint x="660" y="140"/>
                        </Array>
                    </mxGeometry>
                </mxCell>
                <mxCell id="139" value="others" style="rounded=1;whiteSpace=wrap;html=1;fillColor=#6a00ff;strokeColor=#3700CC;fontColor=#ffffff;" parent="82" vertex="1">
                    <mxGeometry x="840" y="59.46428571428572" width="80" height="29.732142857142858" as="geometry"/>
                </mxCell>
                <mxCell id="141" value="other&lt;br&gt;params" style="rounded=1;whiteSpace=wrap;html=1;fillColor=#fa6800;strokeColor=#C73500;fontColor=#000000;" parent="82" vertex="1">
                    <mxGeometry x="620" y="208.12428571428572" width="80" height="29.732142857142858" as="geometry"/>
                </mxCell>
                <mxCell id="150" style="edgeStyle=none;html=1;entryX=0.5;entryY=1;entryDx=0;entryDy=0;dashed=1;startArrow=none;startFill=0;endArrow=classicThin;endFill=1;" parent="82" source="149" target="63" edge="1">
                    <mxGeometry relative="1" as="geometry"/>
                </mxCell>
                <mxCell id="149" value="task is complete!!!" style="rounded=1;whiteSpace=wrap;html=1;fillColor=#fff2cc;strokeColor=#d6b656;" parent="82" vertex="1">
                    <mxGeometry x="850" y="259.94642857142856" width="80" height="29.732142857142858" as="geometry"/>
                </mxCell>
                <mxCell id="153" style="edgeStyle=none;html=1;entryX=0;entryY=0.5;entryDx=0;entryDy=0;dashed=1;startArrow=none;startFill=0;endArrow=classicThin;endFill=1;" parent="82" source="147" target="63" edge="1">
                    <mxGeometry relative="1" as="geometry">
                        <Array as="points">
                            <mxPoint x="830" y="320"/>
                            <mxPoint x="830" y="190"/>
                        </Array>
                    </mxGeometry>
                </mxCell>
                <mxCell id="154" value="no --wait" style="edgeLabel;html=1;align=center;verticalAlign=middle;resizable=0;points=[];" parent="153" vertex="1" connectable="0">
                    <mxGeometry x="-0.2482" y="-1" relative="1" as="geometry">
                        <mxPoint as="offset"/>
                    </mxGeometry>
                </mxCell>
                <mxCell id="147" value="wait" style="rounded=1;whiteSpace=wrap;html=1;fillColor=#fff2cc;strokeColor=#d6b656;dashed=1;" parent="82" vertex="1">
                    <mxGeometry x="850" y="327.51785714285717" width="80" height="29.732142857142858" as="geometry"/>
                </mxCell>
                <mxCell id="148" style="edgeStyle=none;html=1;dashed=1;startArrow=none;startFill=0;endArrow=classicThin;endFill=1;entryX=0.5;entryY=1;entryDx=0;entryDy=0;" parent="82" source="147" target="149" edge="1">
                    <mxGeometry relative="1" as="geometry">
                        <mxPoint x="890" y="341.9196428571429" as="targetPoint"/>
                    </mxGeometry>
                </mxCell>
                <mxCell id="152" value="has --wait" style="edgeLabel;html=1;align=center;verticalAlign=middle;resizable=0;points=[];" parent="148" vertex="1" connectable="0">
                    <mxGeometry x="-0.2258" y="-3" relative="1" as="geometry">
                        <mxPoint as="offset"/>
                    </mxGeometry>
                </mxCell>
                <mxCell id="234" style="edgeStyle=none;html=1;entryX=0.5;entryY=0;entryDx=0;entryDy=0;dashed=1;" edge="1" parent="82" source="231" target="233">
                    <mxGeometry relative="1" as="geometry"/>
                </mxCell>
                <mxCell id="231" value="before-entrypoint" style="rounded=1;whiteSpace=wrap;html=1;fillColor=#6a00ff;strokeColor=#3700CC;fontColor=#ffffff;" vertex="1" parent="82">
                    <mxGeometry x="740" y="59.465" width="80" height="29.732142857142858" as="geometry"/>
                </mxCell>
                <mxCell id="233" value="-entrypoint&lt;br&gt;param" style="rounded=1;whiteSpace=wrap;html=1;fillColor=#fa6800;strokeColor=#C73500;fontColor=#000000;" vertex="1" parent="82">
                    <mxGeometry x="740" y="208.12" width="80" height="29.732142857142858" as="geometry"/>
                </mxCell>
                <mxCell id="54" value="Container" style="swimlane;startSize=20;horizontal=0;html=1;" parent="145" vertex="1">
                    <mxGeometry y="390.005" width="960" height="208.125" as="geometry"/>
                </mxCell>
                <mxCell id="57" value="docker run" style="rounded=1;whiteSpace=wrap;html=1;fillColor=#f8cecc;strokeColor=#b85450;" parent="54" vertex="1">
                    <mxGeometry x="410" y="79.28571428571429" width="80" height="29.732142857142858" as="geometry"/>
                </mxCell>
                <mxCell id="56" value="init&lt;br&gt;script" style="rounded=1;whiteSpace=wrap;html=1;fillColor=#fff2cc;strokeColor=#d6b656;" parent="54" vertex="1">
                    <mxGeometry x="718" y="79.28571428571429" width="80" height="29.732142857142858" as="geometry"/>
                </mxCell>
                <mxCell id="55" style="edgeStyle=none;html=1;entryX=1;entryY=0.5;entryDx=0;entryDy=0;" parent="54" source="56" target="57" edge="1">
                    <mxGeometry relative="1" as="geometry">
                        <mxPoint x="440" y="-51.04017857142858" as="targetPoint"/>
                    </mxGeometry>
                </mxCell>
                <mxCell id="130" style="edgeStyle=none;html=1;entryX=0.5;entryY=0;entryDx=0;entryDy=0;dashed=1;endArrow=classic;endFill=1;" parent="145" source="127" target="57" edge="1">
                    <mxGeometry relative="1" as="geometry"/>
                </mxCell>
                <mxCell id="126" style="edgeStyle=none;html=1;entryX=0.5;entryY=0;entryDx=0;entryDy=0;dashed=1;exitX=1;exitY=0.5;exitDx=0;exitDy=0;" parent="145" source="102" target="57" edge="1">
                    <mxGeometry relative="1" as="geometry"/>
                </mxCell>
                <mxCell id="124" style="edgeStyle=none;html=1;entryX=0.5;entryY=0;entryDx=0;entryDy=0;dashed=1;" parent="145" source="98" target="57" edge="1">
                    <mxGeometry relative="1" as="geometry"/>
                </mxCell>
                <mxCell id="66" style="edgeStyle=none;html=1;entryX=0.5;entryY=0;entryDx=0;entryDy=0;" parent="145" source="65" target="57" edge="1">
                    <mxGeometry relative="1" as="geometry"/>
                </mxCell>
                <mxCell id="144" style="edgeStyle=none;html=1;entryX=0.5;entryY=0;entryDx=0;entryDy=0;dashed=1;startArrow=none;startFill=0;endArrow=classicThin;endFill=1;" parent="145" source="141" target="57" edge="1">
                    <mxGeometry relative="1" as="geometry"/>
                </mxCell>
                <mxCell id="58" value="" style="edgeStyle=segmentEdgeStyle;endArrow=classic;html=1;curved=0;rounded=0;endSize=8;startSize=8;entryX=0.5;entryY=0;entryDx=0;entryDy=0;dashed=1;fillColor=#f8cecc;strokeColor=#b85450;exitX=0;exitY=0.5;exitDx=0;exitDy=0;" parent="145" source="76" target="56" edge="1">
                    <mxGeometry width="50" height="50" relative="1" as="geometry">
                        <mxPoint x="850" y="227.94642857142858" as="sourcePoint"/>
                        <mxPoint x="710" y="158.57142857142858" as="targetPoint"/>
                    </mxGeometry>
                </mxCell>
                <mxCell id="78" value="" style="edgeStyle=segmentEdgeStyle;endArrow=classic;html=1;curved=0;rounded=0;endSize=8;startSize=8;dashed=1;fillColor=#f8cecc;strokeColor=#b85450;exitX=1;exitY=0.5;exitDx=0;exitDy=0;" parent="145" source="77" target="56" edge="1">
                    <mxGeometry width="50" height="50" relative="1" as="geometry">
                        <mxPoint x="810" y="312.1875" as="sourcePoint"/>
                        <mxPoint x="820" y="436.0714285714286" as="targetPoint"/>
                    </mxGeometry>
                </mxCell>
                <mxCell id="146" style="edgeStyle=none;html=1;entryX=0.5;entryY=1;entryDx=0;entryDy=0;dashed=1;startArrow=none;startFill=0;endArrow=classicThin;endFill=1;" parent="145" source="57" target="147" edge="1">
                    <mxGeometry relative="1" as="geometry">
                        <Array as="points">
                            <mxPoint x="450" y="500.49107142857144"/>
                            <mxPoint x="450" y="540"/>
                            <mxPoint x="890" y="540"/>
                        </Array>
                    </mxGeometry>
                </mxCell>
                <mxCell id="76" value="command" style="rounded=1;whiteSpace=wrap;html=1;fillColor=#6a00ff;strokeColor=#3700CC;fontColor=#ffffff;" parent="145" vertex="1">
                    <mxGeometry x="610" y="80.005" width="80" height="29.732142857142858" as="geometry"/>
                </mxCell>
                <mxCell id="79" style="edgeStyle=none;html=1;dashed=1;startArrow=classicThin;startFill=1;endArrow=none;endFill=0;entryX=0.889;entryY=0.339;entryDx=0;entryDy=0;entryPerimeter=0;exitX=0.5;exitY=0;exitDx=0;exitDy=0;" parent="145" source="76" target="88" edge="1">
                    <mxGeometry relative="1" as="geometry">
                        <mxPoint x="825" y="59.64285714285711" as="targetPoint"/>
                        <Array as="points">
                            <mxPoint x="650" y="40"/>
                        </Array>
                    </mxGeometry>
                </mxCell>
                <mxCell id="235" style="edgeStyle=none;html=1;entryX=0.5;entryY=0;entryDx=0;entryDy=0;dashed=1;exitX=0.5;exitY=1;exitDx=0;exitDy=0;" edge="1" parent="145" source="233" target="57">
                    <mxGeometry relative="1" as="geometry"/>
                </mxCell>
                <mxCell id="160" style="edgeStyle=none;html=1;dashed=1;startArrow=none;startFill=0;endArrow=classicThin;endFill=1;" parent="1" source="88" edge="1">
                    <mxGeometry relative="1" as="geometry">
                        <mxPoint x="1000" y="200" as="targetPoint"/>
                        <Array as="points">
                            <mxPoint x="1000" y="165"/>
                        </Array>
                    </mxGeometry>
                </mxCell>
            </root>
        </mxGraphModel>
    </diagram>
</mxfile>
